<svg width="50" height="50" xmlns="http://www.w3.org/2000/svg">
 <g>
  <title>background</title>
  <rect x="-1" y="-1" width="52" height="52" id="canvas_background" fill="none"/>
 </g>

 <g>
  <title>Layer 1</title>
  <g id="svg_6"/>
  <g id="svg_7"/>
  <g id="svg_8"/>
  <g id="svg_9"/>
  <g id="svg_10"/>
  <g id="svg_11"/>
  <g id="svg_12"/>
  <g id="svg_13"/>
  <g id="svg_14"/>
  <g id="svg_15"/>
  <g id="svg_16"/>
  <g id="svg_17"/>
  <g id="svg_18"/>
  <g id="svg_19"/>
  <g id="svg_20"/>
  <path fill="none" stroke="null" stroke-width="null" stroke-opacity="null" fill-opacity="null" opacity="0.5" d="m508.46399,107.41712" id="svg_26"/>
  <path fill="none" stroke="null" stroke-width="null" stroke-opacity="null" fill-opacity="null" opacity="0.5" d="m-67.53601,85.41712" id="svg_27"/>
  <rect fill="none" stroke="null" stroke-width="null" stroke-opacity="null" fill-opacity="null" x="558.69566" y="327.71739" width="0.54348" height="0" id="svg_53"/>
  <path stroke="null" d="m40.18457,32.50516c0,-4.64778 2.57799,-6.2829 2.68299,-6.34709c0.38139,-0.22566 0.5067,-0.7178 0.28104,-1.09919c-0.22616,-0.38208 -0.71879,-0.50729 -1.09969,-0.28163c-0.14156,0.08421 -3.46924,2.11893 -3.46924,7.72791c0,3.1782 1.08552,5.22135 1.95746,6.8632c0.62528,1.17537 1.11841,2.10467 1.11841,3.16681c0,0.76109 -0.16563,1.31059 -0.47847,1.59113c-0.31868,0.2852 -0.73504,0.2429 -0.74286,0.2429c-0.03814,-0.00574 -0.07727,-0.00832 -0.116,-0.00832l-2.95353,0c0.34374,-0.5381 0.54642,-1.17438 0.54642,-1.85929l0,-36.17449c0,-0.36019 -0.24033,-0.67629 -0.58773,-0.77318c-0.34632,-0.09767 -0.71572,0.04983 -0.90216,0.35811l-3.91908,6.48706c-1.20251,-0.02288 -4.73604,-0.05042 -15.31377,-0.05042c-2.24603,0 -3.3577,0.00159 -3.91928,0.00555l-3.61031,-6.95156c-0.17078,-0.32859 -0.54563,-0.49809 -0.90235,-0.40982c-0.35969,0.08777 -0.6126,0.40982 -0.6126,0.77942l0,36.72835c0,1.90991 1.55339,3.46409 3.46379,3.46409l12.26167,0l10.57821,0l5.82682,0c0.0527,0.00465 0.12739,0.00941 0.22041,0.00941c0.39238,0 1.0981,-0.08727 1.71971,-0.62379c0.69373,-0.59972 1.04589,-1.54675 1.04589,-2.81623c0,-1.46225 -0.6342,-2.65634 -1.30554,-3.92007c-0.82994,-1.56042 -1.77024,-3.33075 -1.77024,-6.10885l0.00001,-0.00001zm-16.31528,11.85522l-12.26167,0c-1.02499,0 -1.859,-0.8343 -1.859,-1.85919l0,-33.44227l2.3231,4.47244c0.14701,0.2847 0.45896,0.44954 0.76297,0.43122c0.16098,-0.00416 1.38172,-0.00912 4.35367,-0.00912c6.16798,0 15.05571,0.01932 15.67851,0.04993c0.30392,0.03239 0.61012,-0.11293 0.77318,-0.38268l2.66625,-4.4137l0,33.29467c0,1.02499 -0.83371,1.85929 -1.8587,1.85929l-10.57831,0l0,-0.00059l0,0.00001z" id="svg_4"/>
  <rect stroke="null" fill="null" stroke-width="null" stroke-opacity="null" fill-opacity="null" x="48.53607" y="29.47923" width="0.09906" height="0.09906" id="svg_37"/>
  <path stroke="null" fill="none" stroke-width="NaN" stroke-opacity="null" fill-opacity="null" opacity="0.5" d="m20.60065,37.20605" id="svg_41"/>
  <path stroke="null" fill="null" stroke-width="null" stroke-opacity="null" fill-opacity="null" d="m27.42479,34.55644l0,0c0,-0.04076 0.02218,-0.0738 0.04953,-0.0738l0,0c0.01314,0 0.02574,0.00777 0.03502,0.02161c0.00929,0.01384 0.01451,0.03261 0.01451,0.05218l0,0c0,0.04076 -0.02218,0.0738 -0.04953,0.0738l0,0c-0.02736,0 -0.04953,-0.03304 -0.04953,-0.0738l0.00001,0.00001zm0.02477,0l0,0c0,0.02038 0.01109,0.0369 0.02477,0.0369c0.01368,0 0.02477,-0.01652 0.02477,-0.0369c0,-0.02038 -0.01109,-0.0369 -0.02477,-0.0369l0,0c-0.01368,0 -0.02477,0.01652 -0.02477,0.0369z" id="svg_45"/>
  <path stroke="null" fill="null" stroke-width="null" stroke-opacity="null" fill-opacity="null" d="m26.29765,32.36721l-3.03904,2.55279l-3.03904,-2.55279l6.07808,0z" id="svg_46"/>
  <rect stroke="null" fill="none" stroke-width="null" stroke-opacity="null" fill-opacity="null" x="22.97024" y="32.92241" width="1.81986" height="3.11976" id="svg_51"/>
  <rect stroke="null" fill="#000000" stroke-width="null" stroke-opacity="null" x="22.24682" y="32.57256" width="1.85726" height="4.04618" id="svg_54"/>
  <g stroke="null" id="svg_1">
   <path stroke="#000000" fill="none" stroke-width="null" d="m16.20528,19.01298c2.03757,-4.9583 10.02081,0 0,6.37496c-10.02081,-6.37496 -2.03757,-11.33325 0,-6.37496z" id="svg_29"/>
   <path stroke="#000000" fill="none" stroke-width="null" d="m29.91552,19.01297c2.03757,-4.9583 10.02082,0 0,6.37496c-10.02081,-6.37496 -2.03756,-11.33325 0,-6.37496z" id="svg_2"/>
  </g>
 </g>
</svg>